<?xml version="1.0" encoding="UTF-8"?>
<svg xmlns="http://www.w3.org/2000/svg" viewBox="0 0 9 7" width="9" height="7" shape-rendering="crispEdges">
  <!-- Generated by محول SVG -->
  <!-- تطوير: عبدالكريم العبود | abo.saleh.g@gmail.com -->
  <!-- © 2024 محول SVG - All Rights Reserved -->
  <g fill="rgb(0,0,0)">
    <rect x="0" y="0" width="1" height="1"/>
  </g>
  <g fill="rgb(51,0,102)">
    <rect x="1" y="0" width="1" height="1"/>
  </g>
  <g fill="rgb(51,0,204)">
    <rect x="2" y="0" width="1" height="1"/>
  </g>
  <g fill="rgb(102,51,0)">
    <rect x="3" y="0" width="1" height="1"/>
  </g>
  <g fill="rgb(153,51,102)">
    <rect x="4" y="0" width="1" height="1"/>
  </g>
  <g fill="rgb(204,51,204)">
    <rect x="5" y="0" width="1" height="1"/>
  </g>
  <g fill="rgb(204,51,51)">
    <rect x="6" y="0" width="1" height="1"/>
    <rect x="3" y="5" width="1" height="1"/>
  </g>
  <g fill="rgb(0,102,102)">
    <rect x="7" y="0" width="1" height="1"/>
  </g>
  <g fill="rgb(51,102,204)">
    <rect x="8" y="0" width="1" height="1"/>
  </g>
  <g fill="rgb(0,51,0)">
    <rect x="0" y="1" width="1" height="1"/>
  </g>
  <g fill="rgb(51,51,102)">
    <rect x="1" y="1" width="1" height="1"/>
  </g>
  <g fill="rgb(102,51,204)">
    <rect x="2" y="1" width="1" height="1"/>
  </g>
  <g fill="rgb(153,102,0)">
    <rect x="3" y="1" width="1" height="1"/>
  </g>
  <g fill="rgb(153,102,102)">
    <rect x="4" y="1" width="1" height="1"/>
  </g>
  <g fill="rgb(204,102,204)">
    <rect x="5" y="1" width="1" height="1"/>
  </g>
  <g fill="rgb(255,102,51)">
    <rect x="6" y="1" width="1" height="1"/>
  </g>
  <g fill="rgb(0,153,153)">
    <rect x="7" y="1" width="1" height="1"/>
  </g>
  <g fill="rgb(51,153,204)">
    <rect x="8" y="1" width="1" height="1"/>
  </g>
  <g fill="rgb(51,102,0)">
    <rect x="0" y="2" width="1" height="1"/>
  </g>
  <g fill="rgb(51,102,102)">
    <rect x="1" y="2" width="1" height="1"/>
  </g>
  <g fill="rgb(102,153,204)">
    <rect x="2" y="2" width="1" height="1"/>
  </g>
  <g fill="rgb(153,153,51)">
    <rect x="3" y="2" width="1" height="1"/>
  </g>
  <g fill="rgb(204,153,102)">
    <rect x="4" y="2" width="1" height="1"/>
  </g>
  <g fill="rgb(204,153,204)">
    <rect x="5" y="2" width="1" height="1"/>
  </g>
  <g fill="rgb(0,153,51)">
    <rect x="6" y="2" width="1" height="1"/>
  </g>
  <g fill="rgb(51,204,153)">
    <rect x="7" y="2" width="1" height="1"/>
  </g>
  <g fill="rgb(51,204,255)">
    <rect x="8" y="2" width="1" height="1"/>
  </g>
  <g fill="rgb(51,153,0)">
    <rect x="0" y="3" width="1" height="1"/>
  </g>
  <g fill="rgb(102,153,102)">
    <rect x="1" y="3" width="1" height="1"/>
  </g>
  <g fill="rgb(102,204,204)">
    <rect x="2" y="3" width="1" height="1"/>
  </g>
  <g fill="rgb(153,204,51)">
    <rect x="3" y="3" width="1" height="1"/>
  </g>
  <g fill="rgb(204,204,153)">
    <rect x="4" y="3" width="1" height="1"/>
  </g>
  <g fill="rgb(255,204,204)">
    <rect x="5" y="3" width="1" height="1"/>
  </g>
  <g fill="rgb(0,204,51)">
    <rect x="6" y="3" width="1" height="1"/>
  </g>
  <g fill="rgb(51,255,153)">
    <rect x="7" y="3" width="1" height="1"/>
  </g>
  <g fill="rgb(102,255,255)">
    <rect x="8" y="3" width="1" height="1"/>
  </g>
  <g fill="rgb(51,204,51)">
    <rect x="0" y="4" width="1" height="1"/>
  </g>
  <g fill="rgb(102,204,102)">
    <rect x="1" y="4" width="1" height="1"/>
  </g>
  <g fill="rgb(153,255,204)">
    <rect x="2" y="4" width="1" height="1"/>
  </g>
  <g fill="rgb(204,255,51)">
    <rect x="3" y="4" width="1" height="1"/>
  </g>
  <g fill="rgb(204,0,153)">
    <rect x="4" y="4" width="1" height="1"/>
  </g>
  <g fill="rgb(255,0,204)">
    <rect x="5" y="4" width="1" height="1"/>
  </g>
  <g fill="rgb(51,0,51)">
    <rect x="6" y="4" width="1" height="1"/>
  </g>
  <g fill="rgb(51,51,153)">
    <rect x="7" y="4" width="1" height="1"/>
  </g>
  <g fill="rgb(102,51,255)">
    <rect x="8" y="4" width="1" height="1"/>
  </g>
  <g fill="rgb(102,0,51)">
    <rect x="0" y="5" width="1" height="1"/>
  </g>
  <g fill="rgb(102,0,102)">
    <rect x="1" y="5" width="1" height="1"/>
  </g>
  <g fill="rgb(153,51,204)">
    <rect x="2" y="5" width="1" height="1"/>
  </g>
  <g fill="rgb(255,51,153)">
    <rect x="4" y="5" width="1" height="1"/>
  </g>
  <g fill="rgb(0,51,255)">
    <rect x="5" y="5" width="1" height="1"/>
  </g>
  <g fill="rgb(51,51,51)">
    <rect x="6" y="5" width="1" height="1"/>
  </g>
  <g fill="rgb(102,102,153)">
    <rect x="7" y="5" width="1" height="1"/>
  </g>
  <g fill="rgb(102,102,255)">
    <rect x="8" y="5" width="1" height="1"/>
  </g>
  <g fill="rgb(102,51,51)">
    <rect x="0" y="6" width="1" height="1"/>
  </g>
  <g fill="rgb(153,51,153)">
    <rect x="1" y="6" width="1" height="1"/>
  </g>
  <g fill="rgb(153,102,204)">
    <rect x="2" y="6" width="1" height="1"/>
  </g>
  <g fill="rgb(204,102,51)">
    <rect x="3" y="6" width="1" height="1"/>
  </g>
  <g fill="rgb(255,102,153)">
    <rect x="4" y="6" width="1" height="1"/>
  </g>
  <g fill="rgb(51,102,255)">
    <rect x="5" y="6" width="1" height="1"/>
  </g>
  <g fill="rgb(51,153,51)">
    <rect x="6" y="6" width="1" height="1"/>
  </g>
  <g fill="rgb(102,153,153)">
    <rect x="7" y="6" width="1" height="1"/>
  </g>
  <g fill="rgb(153,153,0)">
    <rect x="8" y="6" width="1" height="1"/>
  </g>
</svg>